<svg width="417" height="129" viewBox="0 0 417 129" fill="none" xmlns="http://www.w3.org/2000/svg">

<path d="M41.875 48.375H76V94.25C71.2083 95.8333 66.25 97.0625 61.125 97.9375C56 98.8125 50.25 99.25 43.875 99.25C34.5833 99.25 26.7083 97.4167 20.25 93.75C13.8333 90.0417 8.95833 84.6875 5.625 77.6875C2.29167 70.6458 0.625 62.1667 0.625 52.25C0.625 42.7083 2.47917 34.4375 6.1875 27.4375C9.89583 20.3958 15.2917 14.9583 22.375 11.125C29.4583 7.25 38.0417 5.3125 48.125 5.3125C53.0833 5.3125 57.875 5.8125 62.5 6.8125C67.1667 7.77083 71.4375 9.10417 75.3125 10.8125L70.0625 23.1875C66.9792 21.7292 63.5208 20.5 59.6875 19.5C55.8542 18.5 51.875 18 47.75 18C41.2083 18 35.5625 19.4167 30.8125 22.25C26.1042 25.0833 22.4792 29.0833 19.9375 34.25C17.3958 39.375 16.125 45.4375 16.125 52.4375C16.125 59.2292 17.1458 65.1875 19.1875 70.3125C21.2292 75.4375 24.4167 79.4375 28.75 82.3125C33.125 85.1458 38.7708 86.5625 45.6875 86.5625C49.1458 86.5625 52.0833 86.375 54.5 86C56.9167 85.625 59.1458 85.2083 61.1875 84.75V61.1875H41.875V48.375ZM157.625 63.25C157.625 69 156.875 74.1042 155.375 78.5625C153.875 83.0208 151.688 86.7917 148.812 89.875C145.938 92.9167 142.479 95.25 138.438 96.875C134.396 98.4583 129.833 99.25 124.75 99.25C120 99.25 115.646 98.4583 111.688 96.875C107.729 95.25 104.292 92.9167 101.375 89.875C98.5 86.7917 96.2708 83.0208 94.6875 78.5625C93.1042 74.1042 92.3125 69 92.3125 63.25C92.3125 55.625 93.625 49.1667 96.25 43.875C98.9167 38.5417 102.708 34.4792 107.625 31.6875C112.542 28.8958 118.396 27.5 125.188 27.5C131.562 27.5 137.188 28.8958 142.062 31.6875C146.938 34.4792 150.75 38.5417 153.5 43.875C156.25 49.2083 157.625 55.6667 157.625 63.25ZM107.438 63.25C107.438 68.2917 108.042 72.6042 109.25 76.1875C110.5 79.7708 112.417 82.5208 115 84.4375C117.583 86.3125 120.917 87.25 125 87.25C129.083 87.25 132.417 86.3125 135 84.4375C137.583 82.5208 139.479 79.7708 140.688 76.1875C141.896 72.6042 142.5 68.2917 142.5 63.25C142.5 58.2083 141.896 53.9375 140.688 50.4375C139.479 46.8958 137.583 44.2083 135 42.375C132.417 40.5 129.062 39.5625 124.938 39.5625C118.854 39.5625 114.417 41.6042 111.625 45.6875C108.833 49.7708 107.438 55.625 107.438 63.25ZM235.75 63.25C235.75 69 235 74.1042 233.5 78.5625C232 83.0208 229.812 86.7917 226.938 89.875C224.062 92.9167 220.604 95.25 216.562 96.875C212.521 98.4583 207.958 99.25 202.875 99.25C198.125 99.25 193.771 98.4583 189.812 96.875C185.854 95.25 182.417 92.9167 179.5 89.875C176.625 86.7917 174.396 83.0208 172.812 78.5625C171.229 74.1042 170.438 69 170.438 63.25C170.438 55.625 171.75 49.1667 174.375 43.875C177.042 38.5417 180.833 34.4792 185.75 31.6875C190.667 28.8958 196.521 27.5 203.312 27.5C209.688 27.5 215.312 28.8958 220.188 31.6875C225.062 34.4792 228.875 38.5417 231.625 43.875C234.375 49.2083 235.75 55.6667 235.75 63.25ZM185.562 63.25C185.562 68.2917 186.167 72.6042 187.375 76.1875C188.625 79.7708 190.542 82.5208 193.125 84.4375C195.708 86.3125 199.042 87.25 203.125 87.25C207.208 87.25 210.542 86.3125 213.125 84.4375C215.708 82.5208 217.604 79.7708 218.812 76.1875C220.021 72.6042 220.625 68.2917 220.625 63.25C220.625 58.2083 220.021 53.9375 218.812 50.4375C217.604 46.8958 215.708 44.2083 213.125 42.375C210.542 40.5 207.188 39.5625 203.062 39.5625C196.979 39.5625 192.542 41.6042 189.75 45.6875C186.958 49.7708 185.562 55.625 185.562 63.25ZM272.375 128.75C263 128.75 255.812 127.062 250.812 123.688C245.812 120.312 243.312 115.583 243.312 109.5C243.312 105.25 244.646 101.646 247.312 98.6875C249.979 95.7708 253.792 93.75 258.75 92.625C256.875 91.7917 255.25 90.5 253.875 88.75C252.542 86.9583 251.875 84.9792 251.875 82.8125C251.875 80.2292 252.604 78.0208 254.062 76.1875C255.521 74.3542 257.708 72.5833 260.625 70.875C257 69.3333 254.083 66.8333 251.875 63.375C249.708 59.875 248.625 55.7708 248.625 51.0625C248.625 46.0625 249.688 41.8125 251.812 38.3125C253.938 34.7708 257.042 32.0833 261.125 30.25C265.208 28.375 270.146 27.4375 275.938 27.4375C277.188 27.4375 278.542 27.5208 280 27.6875C281.5 27.8125 282.875 27.9792 284.125 28.1875C285.417 28.3542 286.396 28.5417 287.062 28.75H311V36.9375L299.25 39.125C300.375 40.7083 301.271 42.5208 301.938 44.5625C302.604 46.5625 302.938 48.75 302.938 51.125C302.938 58.2917 300.458 63.9375 295.5 68.0625C290.583 72.1458 283.792 74.1875 275.125 74.1875C273.042 74.1042 271.021 73.9375 269.062 73.6875C267.562 74.6042 266.417 75.625 265.625 76.75C264.833 77.8333 264.438 79.0625 264.438 80.4375C264.438 81.5625 264.833 82.4792 265.625 83.1875C266.417 83.8542 267.583 84.3542 269.125 84.6875C270.708 85.0208 272.625 85.1875 274.875 85.1875H286.812C294.396 85.1875 300.188 86.7917 304.188 90C308.188 93.2083 310.188 97.9167 310.188 104.125C310.188 112 306.938 118.062 300.438 122.312C293.938 126.604 284.583 128.75 272.375 128.75ZM272.938 118.438C278.062 118.438 282.375 117.938 285.875 116.938C289.375 115.938 292.021 114.5 293.812 112.625C295.604 110.792 296.5 108.604 296.5 106.062C296.5 103.812 295.938 102.083 294.812 100.875C293.688 99.6667 292 98.8333 289.75 98.375C287.5 97.9167 284.708 97.6875 281.375 97.6875H270.5C267.792 97.6875 265.396 98.1042 263.312 98.9375C261.229 99.8125 259.604 101.062 258.438 102.688C257.312 104.312 256.75 106.271 256.75 108.562C256.75 111.729 258.146 114.167 260.938 115.875C263.771 117.583 267.771 118.438 272.938 118.438ZM275.812 64.5625C280.104 64.5625 283.292 63.3958 285.375 61.0625C287.458 58.6875 288.5 55.3542 288.5 51.0625C288.5 46.3958 287.417 42.8958 285.25 40.5625C283.125 38.2292 279.958 37.0625 275.75 37.0625C271.625 37.0625 268.479 38.25 266.312 40.625C264.188 43 263.125 46.5208 263.125 51.1875C263.125 55.3958 264.188 58.6875 266.312 61.0625C268.479 63.3958 271.646 64.5625 275.812 64.5625ZM338.375 98H323.625V0.75H338.375V98ZM386.938 27.5C393.104 27.5 398.396 28.7708 402.812 31.3125C407.229 33.8542 410.625 37.4583 413 42.125C415.375 46.7917 416.562 52.375 416.562 58.875V66.75H370.375C370.542 73.4583 372.333 78.625 375.75 82.25C379.208 85.875 384.042 87.6875 390.25 87.6875C394.667 87.6875 398.625 87.2708 402.125 86.4375C405.667 85.5625 409.312 84.2917 413.062 82.625V94.5625C409.604 96.1875 406.083 97.375 402.5 98.125C398.917 98.875 394.625 99.25 389.625 99.25C382.833 99.25 376.854 97.9375 371.688 95.3125C366.562 92.6458 362.542 88.6875 359.625 83.4375C356.75 78.1875 355.312 71.6667 355.312 63.875C355.312 56.125 356.625 49.5417 359.25 44.125C361.875 38.7083 365.562 34.5833 370.312 31.75C375.062 28.9167 380.604 27.5 386.938 27.5ZM386.938 38.5625C382.312 38.5625 378.562 40.0625 375.688 43.0625C372.854 46.0625 371.188 50.4583 370.688 56.25H402.188C402.146 52.7917 401.562 49.7292 400.438 47.0625C399.354 44.3958 397.688 42.3125 395.438 40.8125C393.229 39.3125 390.396 38.5625 386.938 38.5625Z" fill="rgba(184, 202, 205, 1.00)"/>

</svg>